<svg id="Group_720" data-name="Group 720" xmlns="http://www.w3.org/2000/svg" xmlns:xlink="http://www.w3.org/1999/xlink" width="242" height="100" viewBox="0 0 242 100">
  <defs>
    <clipPath id="clip-path">
      <rect id="Rectangle_1328" data-name="Rectangle 1328" width="242" height="100"/>
    </clipPath>
  </defs>
  <g id="Group_718" data-name="Group 718" clip-path="url(#clip-path)">
    <path id="Path_106" data-name="Path 106" d="M99.248,79.63c-.355-.23-.74-.342-1.111-.58a5.743,5.743,0,0,0-1.45-.676,13.679,13.679,0,0,0-5.774-.362,16.832,16.832,0,0,0-2.851,1.015c-.389-.045-.575-.476-.773-.725-.527-.662-1.1-1.278-1.619-1.957-.694-.915-1.56-1.721-2.247-2.633-.644-.856-1.353-1.613-2.005-2.44l-.652-.894a11.229,11.229,0,0,1-1.884-2.319c.194-.526,1.449-1.441,1.884-1.884l2.464-3a32.2,32.2,0,0,0,4.832-10.534l.507-3,.072-1.788a12.9,12.9,0,0,0,0-3.793l-.121-2.126a31.55,31.55,0,0,0-2.44-8.214,31.033,31.033,0,0,0-1.667-3.092c-.241-.371-.78-.816-.846-1.3-.08-.306.324-.557.507-.7.652-.511,1.25-1.1,1.909-1.619a14.227,14.227,0,0,0,1.063-1.039l1.256-.991c1.3-.988,2.41-2.237,3.721-3.237.494-.377,1.76-1.866,2.343-1.933a5.306,5.306,0,0,1,.942.7l1.353.8a12.189,12.189,0,0,0,6.692.918,10.765,10.765,0,0,0,8.7-7.707,9.586,9.586,0,0,0,.435-4.035,17.894,17.894,0,0,0-.193-1.884,12.562,12.562,0,0,0-1.16-2.875A11.842,11.842,0,0,0,105.457.87a9.772,9.772,0,0,0-1.933-.507,7.645,7.645,0,0,1-1.3-.169c-.051-.051-.049-.083-.048-.193h-1.353V.193A17.949,17.949,0,0,0,97.532.87a10.933,10.933,0,0,0-6.209,6.088,14.1,14.1,0,0,0-.7,1.933L90.5,10.413a3.066,3.066,0,0,0-.121,1.16c.11.621.1,1.393.242,2.054.093.43.237.774.362,1.232.148.538.594.994.6,1.595a27.675,27.675,0,0,1-3.334,2.972c-1.586,1.308-3.038,2.785-4.663,4.059-.679.532-1.276,1.172-1.957,1.715-.308.246-.44.648-.991.652l-1.474-1.5A32.85,32.85,0,0,0,69.8,18.675a35.227,35.227,0,0,0-6.5-1.595c-.727-.145-1.464.012-2.271-.121a9.919,9.919,0,0,0-2.778,0H57.186c-1.173.193-2.206.215-3.358.459a23.78,23.78,0,0,0-2.464.7l-.821.145c-.49.187-1.107.506-1.595.676a22.849,22.849,0,0,0-5.919,3.165A30.216,30.216,0,0,0,32.495,35.225l-.169.676a25.737,25.737,0,0,0-1.087,3.262c-.209.839-.284,1.582-.483,2.343a9.47,9.47,0,0,1-2.706.1H21.26a12.9,12.9,0,0,1-2.851-.072c-.091-.063-.843-2.152-.991-2.44a9.154,9.154,0,0,0-2.754-3.068,8.788,8.788,0,0,0-2.44-1.256,13.22,13.22,0,0,0-1.474-.362,9.286,9.286,0,0,0-5.074.676C2.453,36.428.652,38.769,0,42.714l.024.942A8.142,8.142,0,0,0,.8,47.5a9.048,9.048,0,0,0,6.016,5.1,8.73,8.73,0,0,0,3.672.314l1.812-.435a9.273,9.273,0,0,0,6.04-6.716c.473-.275,2.286-.1,3.117-.1h6.04a13.036,13.036,0,0,1,2.851.048,4.567,4.567,0,0,1,.121,1.836,4.83,4.83,0,0,0,.145.894c.077.535.01,1,.121,1.57a25.778,25.778,0,0,0,1.595,6.161l.193.725C36.236,65.321,42.2,71.1,51.46,74a27.836,27.836,0,0,0,8.552,1.135,16.442,16.442,0,0,0,2.8-.072c1.123-.2,2.443-.421,3.479-.676l.894-.145c1.479-.467,2.915-1.015,4.325-1.546a10.7,10.7,0,0,0,1.256-.7c.424-.238.86-.319,1.256-.58s.851-.763,1.474-.749a24.717,24.717,0,0,1,2.3,2.754c1.315,1.577,2.69,3.115,3.938,4.759.632.833,1.381,1.607,2.029,2.44.222.285.689.6.8.966.12.4-.668,1.128-.821,1.425a14.437,14.437,0,0,0-1.619,4.325,10.494,10.494,0,0,0,.314,4.3l.169.918c1.214,2.763,2.948,5.177,5.7,6.378a13.862,13.862,0,0,0,2.3.821,12.355,12.355,0,0,1,1.788.242c.052.051.049.083.048.193h1.546V100a14.076,14.076,0,0,1,1.595-.242l1.5-.435a11.387,11.387,0,0,0,6.378-6.257,12.036,12.036,0,0,0,.387-7.2,11.4,11.4,0,0,0-4.59-6.233M94.706,9.616A7.238,7.238,0,0,1,98.74,4.88l1.184-.411.87-.1a9.608,9.608,0,0,1,2.392.121A7.3,7.3,0,0,1,107.9,8.48c2.035,4.669-1.452,8.993-5.291,9.688a6.951,6.951,0,0,1-7.634-4.639l-.29-.725a7.731,7.731,0,0,1,.024-3.189M10.075,48.8a5.221,5.221,0,0,1-2.368-.266,4.96,4.96,0,0,1-3.576-4.373,4.716,4.716,0,0,1,.1-1.884,5.634,5.634,0,0,1,3.02-3.431l1.329-.387,1.522.024a5.621,5.621,0,0,1,3.672,2.585c2.07,3.481-.671,7.079-3.7,7.731M69.483,68.347a25.257,25.257,0,0,1-2.8,1.111c-1.144.321-2.293.564-3.5.8-.806.155-1.747.111-2.488.242a9.274,9.274,0,0,1-2.754-.145l-.676.024-1.739-.193a29.342,29.342,0,0,1-4.856-1.45A23.946,23.946,0,0,1,36,52.161c-.222-.886-.472-2.046-.676-3l-.072-1.884a8.061,8.061,0,0,1,0-2.44c.107-.669-.057-1.27.072-1.884.192-.915.42-2.066.652-2.9a15.756,15.756,0,0,1,.556-2.15,27.213,27.213,0,0,1,1.425-3.068l.242-.628L39.815,31.7c.42-.569.952-1.067,1.377-1.619l.314-.483A26.3,26.3,0,0,1,51.1,23.1a35.289,35.289,0,0,1,4.614-1.232,17.137,17.137,0,0,0,2.44-.266,21.5,21.5,0,0,1,3.527.145l2.078.145C72.33,23.6,79.375,29.28,82.167,36.723c.164.438.444,1,.628,1.45a24.387,24.387,0,0,1,.846,3.141c.234.928.244,1.992.411,2.9v1.232a18.76,18.76,0,0,1-.121,2.972l-.266,2.247a29.947,29.947,0,0,1-1.232,4.276,24.39,24.39,0,0,1-12.95,13.409M99.924,90.019a4.463,4.463,0,0,1-.169,1.087c-1.274,2.632-2.608,4.15-5.967,4.711a5.843,5.843,0,0,1-3.866-.8,16.305,16.305,0,0,1-1.5-.966,4.064,4.064,0,0,1-.749-.894,7.166,7.166,0,0,1-1.087-6.716,7.8,7.8,0,0,1,3.841-3.962l1.45-.435,1.015-.072c3.665-.013,5.537,1.924,6.668,4.47a5.744,5.744,0,0,1,.362,3.576m141.14-30.127c-.715-2.394-2.718-1.59-5.1-2.15a6.7,6.7,0,0,1-2.513-1.256,6.047,6.047,0,0,1-1.812-2.706,19.4,19.4,0,0,1-.387-5.436V35.466a7.113,7.113,0,0,1,.1-1.981,5.194,5.194,0,0,1,2.2-.145c2.387,0,4.307.281,4.953-1.522a2.155,2.155,0,0,0,.193-1.087,3.911,3.911,0,0,0-.29-1.184c-.74-1.4-2.414-1.281-4.542-1.28-.683,0-2.513.19-2.633-.29q.012-1.329.024-2.658V18.313a10.942,10.942,0,0,0-.121-3.237,2.881,2.881,0,0,0-2.3-1.691,2.959,2.959,0,0,0-2.44,1.45c-.343.669-.145,2.126-.145,3.044v7.151a20.292,20.292,0,0,1-.024,3.044c-.227.429-1.861.088-2.513.193a2.915,2.915,0,0,0-2.15,1.256,2.2,2.2,0,0,0-.29,1.208,2.433,2.433,0,0,0,2.054,2.609c.907.192,2-.142,2.754.072.309.437.169,1.514.169,2.271v13.8a22.568,22.568,0,0,0,.145,4.47,14.94,14.94,0,0,0,1.643,4.518l.652.8a7.64,7.64,0,0,0,2.343,2.1,24.326,24.326,0,0,0,2.827,1.184,22.6,22.6,0,0,0,2.947.483H238l1.45-.048a2.522,2.522,0,0,0,1.619-1.788h.217v-1.3ZM209.125,17.854l-.991-.1-.8.1a3.324,3.324,0,0,0-1.981,1.715,3.174,3.174,0,1,0,5.557-.338,3.664,3.664,0,0,0-1.788-1.377M76.32,41.8a19.292,19.292,0,0,0-1.015-2.972c-2.57-5.963-8.194-10.69-16.791-10.558-.389.162-.892,0-1.329.1a31.119,31.119,0,0,0-4.639,1.184,18.261,18.261,0,0,0-9.567,9.881,17.075,17.075,0,0,0-.846,3.068l-.1,1.715a9.97,9.97,0,0,0,0,3.068c.082.5-.019.9.072,1.425.116.671.245,1.277.435,1.981,1.275,4.737,5.021,8.442,8.891,10.63a13.073,13.073,0,0,0,1.522.58,15.852,15.852,0,0,0,6.306,1.136h1.691a23.031,23.031,0,0,0,3-.507,16.07,16.07,0,0,0,6.378-3.358,3.372,3.372,0,0,0,.821-.966,2.567,2.567,0,0,0-3.31-3.479,11.921,11.921,0,0,0-1.329.966,11.4,11.4,0,0,1-3.092,1.667,28.6,28.6,0,0,1-2.947.628,11.6,11.6,0,0,1-3.431-.193,11.019,11.019,0,0,1-6.426-3.407,13.337,13.337,0,0,1-1.28-1.474c-.325-.529-.761-1.071-1.087-1.619a12.131,12.131,0,0,1-.58-1.57c-.128-.3-.5-.861-.338-1.353.127-.377,1.148-.218,1.667-.217H69.652l5.17-.024a2.846,2.846,0,0,0,1.063-.532c.631-.471,1-2.049.773-3.358L76.32,41.8m-5.049,1.16-.121.145a9.21,9.21,0,0,1-1.812.048h-20.2a4.22,4.22,0,0,1-1.764-.121c-.209-.851.743-2.656,1.087-3.213a12.909,12.909,0,0,1,5.315-5.122,10.693,10.693,0,0,1,1.4-.7,13.083,13.083,0,0,1,1.836-.459,9.751,9.751,0,0,0,1.909-.217A12.132,12.132,0,0,1,69.676,39.09a8.081,8.081,0,0,1,1.595,3.866m26.648-1.4a12.559,12.559,0,0,1,14.013-8.021,11.486,11.486,0,0,1,4.2,1.715l2.029,1.522a2.939,2.939,0,0,0,2.875-.483,2.758,2.758,0,0,0,.556-2.972,4.833,4.833,0,0,0-1.4-1.425c-.926-.632-1.858-1.289-2.851-1.884a10.021,10.021,0,0,0-1.57-.58,17.513,17.513,0,0,0-6.789-1.16l-1.57.121a20.778,20.778,0,0,0-3.576.8,18.37,18.37,0,0,0-10.751,10.7l-.121.652a18.092,18.092,0,0,0-.411,8.6l.169,1.063a17.227,17.227,0,0,0,1.4,3.455l.193.556c1.99,3.27,5.513,6.736,9.495,7.973a18.8,18.8,0,0,0,5.919.846H111.4a24.756,24.756,0,0,0,2.851-.507A19.242,19.242,0,0,0,120.822,59a2.636,2.636,0,0,0-.749-4.4l-.821-.072c-1.178-.141-1.759.6-2.392,1.087a11.665,11.665,0,0,1-4.494,2.126l-1.715.242h-1.015a12.42,12.42,0,0,1-3.745-.556,12.189,12.189,0,0,1-6.741-5.1c-.255-.393-.346-.829-.6-1.232a8.99,8.99,0,0,1-1.063-2.875l-.121-1.4a5.146,5.146,0,0,1-.121-1.715,23.441,23.441,0,0,1,.676-3.551m54.528-12.539c-4.393-1.238-9.529-.8-12.9,1.184-.422.248-.84.343-1.232.6l-1.836,1.329a7.07,7.07,0,0,1-1.136.942H135.2c-.313-.491.022-1.613-.1-2.343a2.566,2.566,0,0,0-2.706-2.464l-.652.145a2.929,2.929,0,0,0-1.5,1.28,5.493,5.493,0,0,0-.145,2.029V59.457a6.638,6.638,0,0,0,.121,2.2,2.727,2.727,0,0,0,1.739,1.377,2.661,2.661,0,0,0,3.02-1.595,8.878,8.878,0,0,0,.121-2.368V54.359q.012-5.073.024-10.147a15.491,15.491,0,0,1,1.933-5.267L137.83,38a12.033,12.033,0,0,1,6.885-4.4c.587-.138,1.17-.015,1.836-.145a5.015,5.015,0,0,1,1.933,0l1.45.1c1.184.246,2.2.761,3.455.991a1.2,1.2,0,0,0,.676-.145,2.429,2.429,0,0,0,1.764-2.875c-.322-1.653-1.829-2.075-3.382-2.513m40.636-.725a2.632,2.632,0,0,0-2.609,1.208c-.544.808-.29,2.687-.29,3.986V43.2a29.192,29.192,0,0,1-.145,4.711c-.1.557,0,1.046-.121,1.546a11.223,11.223,0,0,1-13.529,8.287,11.982,11.982,0,0,1-2.972-1.232,9.746,9.746,0,0,1-1.4-1.087,10.694,10.694,0,0,1-3.841-6.112,22.08,22.08,0,0,1-.217-4.445V32.519a7.864,7.864,0,0,0-.266-2.923,2.634,2.634,0,0,0-2.392-1.329l-.7.145a2.727,2.727,0,0,0-1.57,1.57,6.277,6.277,0,0,0-.121,1.981V43.9c0,3.248-.046,6.283.894,8.577a17.135,17.135,0,0,0,8.552,9.253c.6.27,1.1.347,1.739.58a14.466,14.466,0,0,0,5.074.725h1.522a21.839,21.839,0,0,0,2.851-.507,16.067,16.067,0,0,0,4.373-2.005,11.6,11.6,0,0,1,2.078-1.546l.1.024c.245.442-.018,1.229.072,1.788a2.612,2.612,0,0,0,.894,1.739l.918.483a2.592,2.592,0,0,0,3.237-1.981q.012-1.715.024-3.431V32.084a7.724,7.724,0,0,0-.072-1.909,2.682,2.682,0,0,0-2.078-1.884m17.709,6.692c0-3.187.549-6.7-2.658-6.716l-.652.1a2.987,2.987,0,0,0-1.667,1.5,6.2,6.2,0,0,0-.1,2.005V59.433a8.224,8.224,0,0,0,.048,1.86,2.508,2.508,0,0,0,3.02,1.739,2.6,2.6,0,0,0,1.788-1.474,9.024,9.024,0,0,0,.217-2.73V34.983Z" fill-rule="evenodd"/>
  </g>
</svg>
